<?xml version="1.0" standalone="no"?>
<!DOCTYPE svg PUBLIC "-//W3C//DTD SVG 20010904//EN"
 "http://www.w3.org/TR/2001/REC-SVG-20010904/DTD/svg10.dtd">
<svg version="1.0" xmlns="http://www.w3.org/2000/svg"
 width="1080.000000pt" height="224.000000pt" viewBox="0 0 1080.000000 224.000000"
 preserveAspectRatio="xMidYMid meet">

<g transform="translate(0.000000,224.000000) scale(0.100000,-0.100000)"
fill="#000000" stroke="none">
<path d="M8700 2145 c0 -8 22 -45 48 -82 103 -146 185 -304 216 -420 18 -68
39 -314 27 -325 -4 -5 -470 -9 -1036 -10 l-1030 -3 -3 -62 -3 -63 1038 -2
1038 -3 3 -213 c1 -116 0 -212 -2 -212 -3 0 -31 28 -63 62 -106 113 -157 157
-213 185 -49 25 -65 28 -155 28 -89 0 -106 -3 -150 -27 -107 -56 -225 -196
-255 -301 -32 -115 17 -256 131 -381 98 -107 204 -174 309 -197 105 -23 231
36 342 159 25 29 49 52 52 52 3 0 6 -33 6 -73 l0 -73 95 -41 c52 -22 97 -38
100 -35 3 3 5 245 5 539 l0 533 372 -2 373 -3 -2 -143 c-1 -132 -3 -145 -22
-163 -15 -14 -21 -32 -21 -59 0 -22 2 -40 5 -40 2 0 49 18 103 39 117 47 234
71 343 71 94 0 140 -16 186 -67 27 -29 33 -44 33 -79 0 -24 -2 -44 -5 -44 -4
0 -20 7 -38 17 -81 42 -235 56 -349 32 -123 -26 -265 -115 -333 -207 -48 -67
-61 -126 -41 -195 63 -218 402 -295 680 -155 58 29 86 31 86 5 0 -13 134 -77
161 -77 8 0 10 89 6 328 -5 392 -14 439 -90 520 -72 75 -231 99 -427 63 -63
-12 -118 -21 -122 -21 -4 0 -8 41 -8 90 l0 90 355 0 355 0 0 65 0 65 -798 0
-799 0 -12 139 c-20 244 -84 444 -194 603 -79 115 -67 108 -189 108 -89 0
-108 -3 -108 -15z m99 -1296 c181 -80 189 -214 24 -408 -98 -116 -176 -171
-272 -192 -94 -20 -163 16 -216 113 -25 46 -29 64 -30 133 0 64 5 89 23 127
48 97 170 201 283 242 53 19 124 14 188 -15z m1589 -264 c78 -19 158 -58 173
-86 9 -18 7 -26 -8 -48 -49 -66 -204 -157 -318 -186 -141 -37 -293 -29 -342
17 -42 39 -23 93 65 182 112 113 272 158 430 121z"/>
<path d="M4109 2106 c-98 -35 -284 -133 -449 -236 l-145 -91 -90 30 c-146 48
-341 62 -444 31 -25 -8 -25 -8 6 -9 103 -3 240 -51 340 -119 132 -90 267 -275
313 -428 11 -37 10 -44 -8 -65 -11 -13 -73 -91 -138 -174 -65 -82 -129 -164
-143 -181 -14 -17 -39 -48 -56 -69 -39 -50 -276 -336 -327 -394 -21 -24 -38
-47 -38 -51 0 -7 264 256 341 340 18 19 64 69 103 110 57 60 277 300 293 320
11 13 22 -33 28 -114 14 -200 -39 -430 -137 -593 -65 -109 -168 -218 -254
-269 -77 -46 129 11 241 67 211 105 383 319 446 555 17 62 21 108 22 219 0
155 -16 236 -71 357 l-29 64 70 95 c161 218 281 420 306 516 12 43 2 90 -22
105 -23 14 -92 7 -158 -16z m-128 -276 c31 -17 25 -76 -16 -156 -37 -74 -100
-164 -114 -164 -4 0 -27 23 -51 51 -24 28 -77 78 -119 111 -42 33 -78 62 -80
64 -6 5 81 41 179 75 87 29 167 37 201 19z"/>
<path d="M6666 2063 l-129 -64 7 -212 c15 -498 28 -1014 34 -1312 l7 -320 70
-36 c39 -20 79 -40 91 -43 l21 -6 7 587 c3 324 11 785 17 1026 6 241 9 440 7
442 -2 2 -61 -26 -132 -62z"/>
<path d="M9290 1890 c0 -15 61 -162 74 -179 6 -8 40 -27 76 -43 86 -39 104
-57 156 -160 39 -77 48 -88 70 -88 24 0 26 2 21 38 -8 57 -85 276 -110 313
-25 38 -93 79 -181 109 -65 22 -106 26 -106 10z"/>
<path d="M425 1823 c-99 -24 -225 -128 -272 -225 -78 -159 -71 -416 16 -585
73 -144 216 -193 565 -193 162 0 196 -3 225 -18 57 -28 74 -61 79 -150 4 -65
1 -86 -18 -130 -13 -29 -36 -64 -52 -77 l-30 -25 -404 0 -405 0 3 -152 3 -153
475 0 475 0 50 29 c122 71 189 151 228 271 19 60 22 91 21 225 0 133 -4 164
-22 220 -30 85 -62 139 -111 183 -96 87 -188 107 -483 107 -238 0 -260 5 -294
71 -25 50 -16 195 15 235 52 66 39 64 439 64 l363 0 -3 153 -3 152 -420 1
c-231 1 -429 0 -440 -3z"/>
<path d="M1547 1823 c-4 -3 -7 -73 -7 -155 l0 -148 593 2 592 3 3 130 c1 72 0
140 -3 153 l-5 22 -584 0 c-320 0 -586 -3 -589 -7z"/>
<path d="M4595 1821 c-51 -13 -135 -60 -181 -103 -103 -95 -150 -237 -141
-428 8 -174 52 -289 142 -368 88 -77 210 -102 505 -102 147 0 181 -3 209 -18
58 -29 75 -63 80 -153 4 -106 -10 -145 -82 -221 -1 -1 -186 -5 -412 -8 l-410
-5 0 -150 0 -150 465 -3 465 -2 64 32 c181 92 261 243 261 493 0 184 -45 321
-133 402 -101 93 -186 113 -479 113 -183 0 -218 3 -248 18 -54 26 -72 71 -68
169 3 74 6 85 34 120 17 21 42 44 55 50 18 9 118 13 382 13 l358 0 -3 153 -3
152 -415 2 c-228 0 -428 -2 -445 -6z"/>
<path d="M1545 1127 c-3 -7 -4 -78 -3 -157 l3 -145 390 0 390 0 0 155 0 155
-388 3 c-314 2 -388 0 -392 -11z"/>
<path d="M7477 1030 c-54 -14 -123 -51 -194 -104 -33 -25 -64 -46 -67 -46 -3
0 -6 27 -6 60 l0 60 -95 0 -95 0 0 -414 0 -414 85 -46 c47 -25 87 -46 90 -46
3 0 5 87 5 193 0 230 12 297 74 422 57 114 116 182 197 225 55 29 73 33 139
34 175 2 250 -77 250 -266 0 -176 -35 -254 -186 -409 -35 -37 -64 -71 -64 -77
0 -6 46 -38 101 -73 l102 -63 24 30 c48 58 105 147 128 197 122 279 31 589
-207 706 -58 29 -80 34 -155 37 -49 2 -105 -1 -126 -6z"/>
<path d="M9450 616 l0 -424 33 -20 c17 -10 58 -34 90 -51 l57 -32 0 475 0 476
-90 0 -90 0 0 -424z"/>
<path d="M1542 268 l3 -153 586 -3 587 -2 6 22 c8 30 8 252 0 272 -6 14 -67
16 -595 16 l-590 0 3 -152z"/>
</g>
</svg>
